<svg width="78" height="77" viewBox="0 0 78 77" fill="none" xmlns="http://www.w3.org/2000/svg">
<path d="M77.115 38.223C77.115 37.338 76.68 36.56 76.018 36.072L76.032 36.048L66.708 30.665L72.075 21.369L72.057 21.358C72.2265 20.9749 72.3034 20.5572 72.2813 20.1388C72.2592 19.7204 72.1389 19.3132 71.93 18.95C71.7196 18.5872 71.4265 18.2791 71.0747 18.0508C70.7228 17.8225 70.3221 17.6804 69.905 17.636V17.61H59.137V6.873H59.115C59.0702 6.45644 58.9279 6.05631 58.6996 5.70501C58.4713 5.35371 58.1634 5.06114 57.801 4.851C57.4373 4.64148 57.0292 4.52093 56.61 4.49921C56.1908 4.47748 55.7724 4.55519 55.389 4.726L55.376 4.703L45.895 10.177L40.645 1.083L40.626 1.094C40.3788 0.75573 40.0555 0.480417 39.6822 0.290355C39.3088 0.100293 38.8959 0.00082333 38.477 0C37.592 0 36.813 0.434999 36.326 1.097L36.302 1.083L30.965 10.327L21.775 5.021L21.764 5.04C21.3809 4.87047 20.9632 4.79363 20.5448 4.81569C20.1264 4.83776 19.7192 4.95811 19.356 5.167C18.9929 5.37725 18.6846 5.67023 18.4561 6.0221C18.2276 6.37397 18.0854 6.7748 18.041 7.192H18.014V17.866H7.402V17.887C6.98544 17.9318 6.58531 18.0741 6.23401 18.3024C5.88271 18.5307 5.59014 18.8386 5.38 19.201C5.17103 19.5645 5.05071 19.9722 5.02882 20.3909C5.00692 20.8097 5.08407 21.2277 5.254 21.611L5.231 21.625L10.477 30.712L1.083 36.136L1.094 36.155C0.75573 36.4022 0.480418 36.7255 0.290356 37.0989C0.100293 37.4722 0.00082333 37.8851 0 38.304C0 39.189 0.435 39.968 1.097 40.455L1.083 40.479L10.407 45.862L5.04 55.158L5.058 55.168C4.88847 55.5511 4.81163 55.9688 4.8337 56.3872C4.85576 56.8055 4.97612 57.2128 5.185 57.576C5.39543 57.9388 5.68847 58.2469 6.04033 58.4752C6.39218 58.7035 6.79292 58.8456 7.21 58.89V58.917H17.977V69.653H17.999C18.091 70.469 18.548 71.233 19.313 71.675C19.6768 71.8843 20.0849 72.0047 20.504 72.0264C20.9232 72.0481 21.3415 71.9706 21.725 71.8L21.738 71.823L31.219 66.349L36.469 75.443L36.488 75.432C36.7352 75.7703 37.0585 76.0456 37.4318 76.2356C37.8052 76.4257 38.2181 76.5252 38.637 76.526C39.522 76.526 40.301 76.091 40.788 75.43L40.811 75.443L46.148 66.199L55.339 71.505L55.35 71.486C55.7331 71.6555 56.1508 71.7324 56.5692 71.7103C56.9875 71.6882 57.3948 71.5679 57.758 71.359C58.1212 71.1489 58.4296 70.8559 58.6581 70.504C58.8866 70.1521 59.0288 69.7512 59.073 69.334H59.1V58.661H69.713V58.64C70.1296 58.5952 70.5297 58.4529 70.881 58.2246C71.2323 57.9963 71.5249 57.6884 71.735 57.326C71.944 56.9625 72.0643 56.5548 72.0862 56.1361C72.1081 55.7173 72.0309 55.2993 71.861 54.916L71.884 54.903L66.638 45.816L76.032 40.392L76.021 40.373C76.3593 40.1256 76.6346 39.8021 76.8247 39.4286C77.0147 39.0551 77.1142 38.6421 77.115 38.223ZM26.094 53.46C23.864 54.748 21.842 54.924 20.123 54.462L20.364 51.765C21.666 52.142 23.349 52.14 24.939 51.221C26.306 50.432 26.597 49.456 26.208 48.783C25.049 46.777 19.216 52.013 16.709 47.672C15.601 45.752 16.342 43.201 19.059 41.633C20.892 40.574 22.734 40.25 24.485 40.645L24.176 43.268C22.743 42.944 21.268 43.264 20.092 43.942C19.054 44.542 18.725 45.331 19.125 46.024C20.174 47.84 26.09 42.788 28.576 47.093C29.795 49.202 29.192 51.673 26.094 53.46ZM40.037 45.134L38.183 43.599L33.236 46.455L33.637 48.829L30.852 50.436L28.637 36.333L31.716 34.556L42.822 43.527L40.037 45.134ZM43.79 42.968L37.129 31.43L39.603 30.001L45.016 39.376L49.894 36.56L51.143 38.723L43.79 42.968ZM52.802 37.765L46.141 26.228L54.305 21.513L55.553 23.675L49.846 26.971L51.244 29.393L56.83 26.167L58.078 28.329L52.492 31.554L54.01 34.184L59.718 30.888L60.967 33.05L52.802 37.765Z" fill="#006939"/>
<ellipse cx="38" cy="39" rx="25" ry="24" fill="#006939"/>
<path d="M25.706 53.6035L22.505 48.0592L27.5349 45.1552L30.7359 50.6995L34.1653 48.7195L26.4653 35.3827L23.0359 37.3627L25.7749 42.1068L20.745 45.0108L18.006 40.2667L14.5765 42.2467L22.2765 55.5835L25.706 53.6035ZM38.5231 40.9196C37.4492 40.5997 36.5974 39.8722 35.9704 38.7862C35.3434 37.7002 35.1392 36.5987 35.3991 35.5087C35.6589 34.4188 36.2882 33.5728 37.298 32.9898C38.3078 32.4068 39.3361 32.2958 40.4099 32.6157C41.4838 32.9357 42.3547 33.6522 42.9817 34.7382C43.6087 35.8242 43.7938 36.9367 43.5339 38.0266C43.2741 39.1166 42.6638 39.9516 41.654 40.5346C40.6442 41.1176 39.5969 41.2396 38.5231 40.9196ZM47.3439 38.7737C47.8966 36.651 47.6174 34.6275 46.5064 32.7032C45.3954 30.7789 43.7826 29.5253 41.6679 28.9426C39.5532 28.3599 37.4916 28.661 35.472 29.827C33.4525 30.993 32.1608 32.6279 31.6082 34.7506C31.0555 36.8733 31.3346 38.8969 32.4456 40.8212C33.5566 42.7455 35.1695 43.999 37.2842 44.5817C39.3988 45.1645 41.4605 44.8633 43.48 43.6973C45.4996 42.5313 46.7912 40.8965 47.3439 38.7737ZM58.2312 34.825L52.2692 24.4986L56.2893 22.1776L54.5513 19.1673L43.1007 25.7783L44.8387 28.7886L48.8398 26.4786L54.8018 36.805L58.2312 34.825Z" fill="white"/>
</svg>
